<?xml version="1.0" encoding="iso-8859-1"?><svg xmlns="http://www.w3.org/2000/svg" xmlns:xlink="http://www.w3.org/1999/xlink" viewBox="0 0 80 80" width="100px" height="100px"><circle style="fill:none;stroke:#ffffff;stroke-width:2;stroke-miterlimit:10;" cx="40" cy="40" r="32"/><path style="fill:none;stroke:#ffffff;stroke-width:2;stroke-linecap:round;stroke-linejoin:round;stroke-miterlimit:10;" d="M58.959,40.179C65.494,39.77,69.942,40.154,72,40.415"/><path style="fill:none;stroke:#ffffff;stroke-width:2;stroke-linecap:round;stroke-linejoin:round;stroke-miterlimit:10;" d="M58,44c6.928,0,11.39,0.978,13,1.401"/><path style="fill:none;stroke:#ffffff;stroke-width:2;stroke-linecap:round;stroke-linejoin:round;stroke-miterlimit:10;" d="M8,40.415c2.058-0.261,6.506-0.645,13.041-0.236"/><path style="fill:none;stroke:#ffffff;stroke-width:2;stroke-linecap:round;stroke-linejoin:round;stroke-miterlimit:10;" d="M9,45.401C10.61,44.978,15.072,44,22,44"/><path style="fill:none;stroke:#ffffff;stroke-width:2;stroke-miterlimit:10;" d="M56.647,30.743C57.377,28.381,58,24,56.354,21c-3.945,0-6.814,2.443-8.129,3.624C45.888,23.59,43.112,23,40.044,23s-5.844,0.59-8.328,1.624C30.4,23.443,27.717,21,23.772,21C22,24,22.75,28.233,23.48,30.743c-1.607,2.214-2.484,4.871-2.484,7.381C20.996,46.243,27.133,52,39.99,52s18.994-5.757,18.994-13.876C59.13,35.467,58.254,32.957,56.647,30.743z"/><path style="fill:none;stroke:#ffffff;stroke-width:2;stroke-miterlimit:10;" d="M31.297,60c0,0-4.316,0-5.179,0c-2.158,0-4.028-0.845-4.892-2.535c-1.007-1.831-1.439-5.071-4.028-6.761C16.767,50.422,17.054,50,17.918,50c0.863,0.141,2.733,1.41,3.884,2.959C23.097,54.508,24.698,56,27,56s5.576-0.332,6.583-1.459"/><path style="fill:none;stroke:#ffffff;stroke-width:2;stroke-miterlimit:10;" d="M49,70v-8.714C49,57.429,46.15,52,42.25,52h-4.2c-3.9,0-7.05,5.429-7.05,9.286v9.143"/><circle cx="44" cy="61" r="1"/><circle cx="44" cy="65" r="1"/><circle cx="44" cy="69" r="1"/><circle cx="36" cy="61" r="1"/><circle cx="36" cy="65" r="1"/><circle cx="36" cy="69" r="1"/><circle cx="40" cy="61" r="1"/><circle cx="40" cy="65" r="1"/><circle cx="40" cy="69" r="1"/><g><path d="M54,38.5c-0.13,0-0.26-0.021-0.38-0.08c-0.12-0.05-0.23-0.12-0.33-0.21c-0.09-0.101-0.16-0.21-0.21-0.33S53,37.63,53,37.5s0.03-0.26,0.08-0.38s0.12-0.23,0.21-0.33c0.05-0.04,0.1-0.08,0.149-0.12c0.061-0.04,0.12-0.07,0.181-0.09c0.06-0.03,0.12-0.05,0.18-0.061c0.33-0.069,0.68,0.04,0.91,0.271C54.89,36.979,55,37.24,55,37.5c0,0.13-0.03,0.26-0.08,0.38s-0.12,0.229-0.21,0.33c-0.101,0.09-0.21,0.16-0.33,0.21C54.26,38.479,54.13,38.5,54,38.5z"/><path d="M29.63,45.109c-0.46-0.31-0.58-0.93-0.28-1.39l0,0c0.311-0.46,0.931-0.58,1.391-0.28l0,0c0.46,0.311,0.579,0.931,0.279,1.391l0,0c-0.2,0.29-0.51,0.439-0.84,0.439l0,0C29.99,45.27,29.8,45.22,29.63,45.109z M49.01,44.81c-0.31-0.45-0.19-1.08,0.271-1.38l0,0c0.46-0.31,1.079-0.189,1.39,0.271l0,0c0.3,0.46,0.18,1.08-0.28,1.39l0,0c-0.17,0.11-0.359,0.17-0.55,0.17l0,0C49.51,45.26,49.2,45.1,49.01,44.81z M26.41,41.97c-0.311-0.46-0.19-1.08,0.27-1.39l0,0c0.46-0.311,1.08-0.181,1.39,0.279l0,0c0.311,0.46,0.181,1.08-0.279,1.381l0,0c-0.17,0.119-0.36,0.17-0.55,0.17l0,0C26.92,42.41,26.6,42.26,26.41,41.97z M52.229,42.22c-0.47-0.3-0.59-0.92-0.29-1.38l0,0c0.311-0.46,0.931-0.59,1.391-0.28l0,0c0.46,0.3,0.58,0.92,0.279,1.38l0,0l0,0l0,0c-0.189,0.29-0.51,0.45-0.829,0.45l0,0C52.59,42.39,52.399,42.34,52.229,42.22z"/><path d="M26,38.5c-0.13,0-0.26-0.03-0.38-0.08s-0.23-0.12-0.33-0.21C25.1,38.02,25,37.77,25,37.5c0-0.13,0.02-0.26,0.08-0.38c0.05-0.13,0.12-0.23,0.21-0.33c0.05-0.04,0.1-0.09,0.149-0.12c0.061-0.04,0.12-0.07,0.181-0.09c0.06-0.03,0.12-0.05,0.18-0.061c0.33-0.06,0.68,0.04,0.91,0.271c0.09,0.1,0.16,0.2,0.21,0.33C26.97,37.24,27,37.37,27,37.5c0,0.27-0.101,0.52-0.29,0.71C26.52,38.399,26.27,38.5,26,38.5z"/></g><g><path d="M26,38.5c-0.13,0-0.26-0.03-0.38-0.08s-0.23-0.12-0.33-0.21C25.1,38.02,25,37.77,25,37.5c0-0.13,0.02-0.26,0.08-0.38c0.05-0.13,0.12-0.23,0.21-0.33c0.05-0.04,0.1-0.09,0.149-0.12c0.061-0.04,0.12-0.07,0.181-0.09c0.06-0.03,0.12-0.05,0.18-0.061c0.33-0.06,0.68,0.04,0.91,0.271c0.09,0.1,0.16,0.2,0.21,0.33C26.97,37.24,27,37.37,27,37.5c0,0.27-0.101,0.52-0.29,0.71C26.52,38.399,26.27,38.5,26,38.5z"/><path d="M26.67,34.45c-0.46-0.311-0.59-0.931-0.28-1.391l0,0l0,0l0,0c0.3-0.46,0.92-0.59,1.38-0.279l0,0c0.46,0.3,0.59,0.92,0.29,1.38l0,0c-0.2,0.29-0.52,0.449-0.84,0.449l0,0C27.03,34.609,26.84,34.56,26.67,34.45z M51.93,34.14c-0.31-0.46-0.18-1.08,0.28-1.39l0,0c0.46-0.3,1.08-0.181,1.38,0.28l0,0c0.31,0.46,0.18,1.079-0.271,1.39l0,0c-0.17,0.11-0.369,0.17-0.56,0.17l0,0C52.439,34.59,52.12,34.43,51.93,34.14z M32.93,29.27c-0.17-0.529,0.11-1.09,0.64-1.27l0,0c0.521-0.17,1.091,0.12,1.261,0.64l0,0c0.17,0.521-0.11,1.09-0.641,1.26l0,0c-0.1,0.04-0.21,0.051-0.31,0.051l0,0C33.46,29.95,33.069,29.689,32.93,29.27z M45.78,29.89c-0.53-0.17-0.811-0.729-0.641-1.26l0,0c0.17-0.53,0.74-0.811,1.26-0.64l0,0c0.53,0.18,0.82,0.739,0.641,1.27l0,0c-0.141,0.42-0.53,0.68-0.95,0.68l0,0C45.99,29.939,45.88,29.93,45.78,29.89z M36.93,28.21c-0.06-0.561,0.34-1.05,0.89-1.101l0,0c0.551-0.06,1.04,0.341,1.101,0.891l0,0c0.05,0.55-0.351,1.04-0.9,1.1l0,0c-0.029,0-0.069,0-0.1,0l0,0C37.41,29.1,36.979,28.72,36.93,28.21z M41.95,29.1L41.95,29.1C41.399,29.04,41,28.55,41.06,28l0,0c0.05-0.55,0.54-0.95,1.09-0.891l0,0c0.551,0.051,0.95,0.54,0.9,1.091l0,0c-0.06,0.52-0.49,0.899-1,0.899l0,0C42.02,29.1,41.99,29.1,41.95,29.1z"/><path d="M54,38.5c-0.13,0-0.26-0.021-0.38-0.08c-0.12-0.05-0.23-0.12-0.33-0.21c-0.09-0.101-0.16-0.21-0.21-0.33S53,37.63,53,37.5s0.03-0.26,0.08-0.38s0.12-0.23,0.21-0.33c0.05-0.04,0.1-0.08,0.149-0.12c0.061-0.04,0.12-0.07,0.181-0.09c0.06-0.03,0.12-0.05,0.18-0.061c0.33-0.069,0.68,0.04,0.91,0.271C54.89,36.979,55,37.24,55,37.5c0,0.13-0.03,0.26-0.08,0.38s-0.12,0.229-0.21,0.33c-0.101,0.09-0.21,0.16-0.33,0.21C54.26,38.479,54.13,38.5,54,38.5z"/></g></svg>